<svg xmlns="http://www.w3.org/2000/svg" xmlns:xlink="http://www.w3.org/1999/xlink" viewBox="0 0 907 355" width="907" height="355">
<!-- pile-18-metal-gold.svg: metallic shooter-boost table skin derived from wager ladder level 18 (mound), variant a. Generated by build-table-coins.py. -->
<defs>
<linearGradient id="pile-face-gold" x1="12" y1="106" x2="108" y2="14" gradientUnits="userSpaceOnUse">
  <stop offset="0" stop-color="#704005"/><stop offset="0.14" stop-color="#c88716"/>
  <stop offset="0.28" stop-color="#fff2ab"/><stop offset="0.39" stop-color="#d4a139"/>
  <stop offset="0.55" stop-color="#925506"/><stop offset="0.72" stop-color="#eac052"/>
  <stop offset="0.86" stop-color="#fff0a0"/><stop offset="1" stop-color="#885006"/>
</linearGradient>
<linearGradient id="pile-face-silver" x1="12" y1="106" x2="108" y2="14" gradientUnits="userSpaceOnUse">
  <stop offset="0" stop-color="#35414a"/><stop offset="0.14" stop-color="#8997a0"/>
  <stop offset="0.28" stop-color="#fbfdff"/><stop offset="0.39" stop-color="#c5d0d6"/>
  <stop offset="0.55" stop-color="#5d6a73"/><stop offset="0.72" stop-color="#d8e1e6"/>
  <stop offset="0.86" stop-color="#ffffff"/><stop offset="1" stop-color="#59666f"/>
</linearGradient>
<linearGradient id="pile-face-rim" x1="15" y1="5" x2="106" y2="78" gradientUnits="userSpaceOnUse">
  <stop offset="0" stop-color="#eef2f4"/><stop offset="0.18" stop-color="#737e85"/>
  <stop offset="0.42" stop-color="#1d2327"/><stop offset="0.62" stop-color="#abb5ba"/>
  <stop offset="0.82" stop-color="#30373c"/><stop offset="1" stop-color="#111518"/>
</linearGradient><linearGradient id="wr" x1="0" y1="24" x2="0" y2="61" gradientUnits="userSpaceOnUse"><stop offset="0" stop-color="#fff3b0"/><stop offset="0.09" stop-color="#edc45d"/><stop offset="0.22" stop-color="#9b5d07"/><stop offset="0.39" stop-color="#dca52b"/><stop offset="0.52" stop-color="#fff0a0"/><stop offset="0.66" stop-color="#ad6b09"/><stop offset="0.82" stop-color="#e1ac35"/><stop offset="1" stop-color="#4a2902"/></linearGradient>
<linearGradient id="wg" x1="0" y1="24" x2="0" y2="61" gradientUnits="userSpaceOnUse"><stop offset="0" stop-color="#ffffff"/><stop offset="0.09" stop-color="#dce5ea"/><stop offset="0.22" stop-color="#697780"/><stop offset="0.39" stop-color="#b8c4cb"/><stop offset="0.52" stop-color="#f8fbfd"/><stop offset="0.66" stop-color="#76848d"/><stop offset="0.82" stop-color="#c8d2d8"/><stop offset="1" stop-color="#2d373e"/></linearGradient>
<linearGradient id="curve" x1="2" y1="0" x2="118" y2="0" gradientUnits="userSpaceOnUse">
<stop offset="0" stop-color="#000000" stop-opacity="0.45"/><stop offset="0.13" stop-color="#000000" stop-opacity="0.10"/><stop offset="0.30" stop-color="#ffffff" stop-opacity="0.18"/><stop offset="0.52" stop-color="#ffffff" stop-opacity="0"/><stop offset="0.78" stop-color="#000000" stop-opacity="0.18"/><stop offset="1" stop-color="#000000" stop-opacity="0.52"/>
</linearGradient>
<linearGradient id="gloss" x1="14" y1="6" x2="100" y2="38" gradientUnits="userSpaceOnUse">
<stop offset="0" stop-color="#ffffff" stop-opacity="0.34"/><stop offset="0.4" stop-color="#ffffff" stop-opacity="0.08"/><stop offset="0.7" stop-color="#ffffff" stop-opacity="0"/><stop offset="1" stop-color="#000000" stop-opacity="0.20"/>
</linearGradient>
<pattern id="mill" width="7" height="8" patternUnits="userSpaceOnUse">
<rect x="0" y="0" width="7" height="8" fill="#ffffff" fill-opacity="0.05"/><rect x="0" y="0" width="2.6" height="8" fill="#000000" fill-opacity="0.26"/>
</pattern>
<clipPath id="wallc"><path d="M2,23 l0,16 a58,21 0 0 0 116,0 l0,-16 a58,21 0 0 0 -116,0 z"/></clipPath>
<clipPath id="facec"><ellipse cx="60" cy="23" rx="58" ry="21"/></clipPath>
<clipPath id="fclip"><circle cx="0" cy="0" r="31.5"/></clipPath>
<g id="logoart">
<path d="M 21.816,98.184 A 54,54 0 0 1 98.184,21.816 Z" fill="url(#pile-face-silver)"/>
<path d="M 21.816,98.184 A 54,54 0 0 0 98.184,21.816 Z" fill="url(#pile-face-gold)"/>
<line x1="21.8" y1="98.2" x2="98.2" y2="21.8" stroke="#0a0a0c" stroke-opacity="0.45" stroke-width="1.6"/>
<circle cx="60" cy="60" r="40.5" fill="#111111"/>
<circle cx="60" cy="60" r="31.5" fill="#ffffff"/>
<g transform="matrix(1.26,0,0,1.26,59.714594,49.634935)">
<g clip-path="url(#fclip)"><g transform="matrix(0.13,0,0,0.13,-56.16,-32.76)">
<path fill="#111111" d="m 431.48,504.54 c -5.24,-10.41 -12.36,-18.75 -21.62,-24.98 -6.91,-4.65 -14.21,-8.76 -21.56,-12.69 -12.95,-6.93 -26.54,-12.66 -38.78,-20.91 -19.24,-12.96 -31.77,-30.57 -36.56,-53.37 -3.66,-17.46 -2.13,-34.69 2.89,-51.71 4.01,-13.6 10.35,-26.15 16.95,-38.6 7.71,-14.54 15.86,-28.87 21.81,-44.28 3.39,-8.77 5.94,-17.76 7.2,-27.11 0,3.69 0.24,7.4 -0.04,11.07 -1.48,19.17 -7.44,37.4 -11.94,55.94 -3.57,14.72 -6.92,29.46 -6.53,44.78 0.46,18.05 6.14,34.08 19.02,46.86 9.15,9.09 19.11,17.38 28.83,25.89 8.46,7.41 17.32,14.37 24.28,23.36 7.48,9.66 11.24,20.77 13.22,32.63 0.32,1.93 0.63,3.86 1.02,6.22 4.22,-6.71 8.24,-12.99 12.15,-19.34 2.97,-4.81 5.94,-9.63 8.66,-14.58 8.98,-16.34 8,-31.83 -4.22,-46.28 -6.7,-7.92 -13.41,-15.82 -20.01,-23.82 -4.83,-5.86 -9.23,-12.01 -10.54,-19.77 -1.49,-8.9 0.02,-17.43 3.25,-25.74 3.45,-8.89 7.2,-17.67 10.28,-26.69 3.52,-10.29 5.13,-21.02 5.5,-31.89 0.14,-4.19 -0.28,-8.39 -0.74,-12.61 -3.91,16.79 -14.43,29.92 -23.51,43.8 -7.15,10.93 -14.4,21.79 -19.47,33.9 -3.78,9.03 -6.23,18.4 -6.71,28.2 -0.59,11.95 2.26,23.17 8.54,33.28 3.76,6.07 8.44,11.56 12.72,17.31 0.36,0.49 0.75,0.96 1.13,1.44 l -0.39,0.49 c -2.78,-2 -5.65,-3.89 -8.33,-6.02 -12.9,-10.23 -23.86,-22.09 -30.76,-37.27 -5.35,-11.77 -6.76,-24.15 -5.31,-36.9 2.41,-21.24 11.63,-39.66 23.7,-56.9 7.63,-10.9 15.43,-21.7 22.75,-32.81 7.31,-11.11 11.78,-23.44 13.48,-36.65 1.58,-12.32 0.38,-24.49 -2.45,-36.55 -2.43,-10.38 -6,-20.36 -10.24,-30.13 l 0.47,-0.43 c 3.18,3.14 6.6,6.08 9.51,9.45 16.8,19.42 27.96,41.68 33.29,66.83 3.12,14.73 3.44,29.56 1.84,44.51 -1.06,9.89 -2.25,19.82 -2.49,29.75 -0.27,11.05 3.86,21.06 9.7,30.3 5.19,8.22 10.8,16.18 15.83,24.48 7.27,12.01 11.77,25.09 13,39.09 1.06,12.19 -1.32,23.97 -5.7,35.33 -4.68,12.14 -11.42,23.07 -19.75,33.04 -0.28,0.34 -0.5,0.73 -0.98,1.42 0.58,-0.2 0.81,-0.21 0.94,-0.33 13.86,-12.66 25.56,-26.91 32.56,-44.59 4.2,-10.61 4.64,-21.64 2.92,-32.71 -1.55,-9.97 -3.84,-19.83 -5.69,-29.75 -1.3,-6.98 -1.62,-14.03 -0.96,-21.16 2.41,11.44 9.46,20.38 15.71,29.77 4.45,6.69 8.7,13.49 10.95,21.34 l 0.78,-0.11 c -0.52,-5.46 -0.86,-10.95 -1.6,-16.38 -1.57,-11.65 -6.36,-22.27 -10.97,-32.92 -5.36,-12.4 -10.87,-24.73 -14.2,-37.9 -4.6,-18.21 -6.04,-36.6 -3.4,-55.24 0.17,-1.22 0.27,-2.44 0.62,-3.65 3.31,18.57 10.98,35.38 19.91,51.69 5.97,10.9 12.18,21.66 18.06,32.61 7.08,13.2 12.26,27.14 14.41,42.02 4.35,30.04 -2.87,56.63 -24.51,78.55 -9.21,9.33 -20.5,15.79 -31.95,21.98 -9.44,5.1 -18.91,10.16 -28.11,15.67 -11.91,7.14 -21.38,16.78 -27.83,29.82 z"/>
</g></g></g>
</g>
<filter id="dim1" color-interpolation-filters="sRGB"><feComponentTransfer><feFuncR type="linear" slope="0.82"/><feFuncG type="linear" slope="0.82"/><feFuncB type="linear" slope="0.86"/></feComponentTransfer></filter>
<filter id="dim2" color-interpolation-filters="sRGB"><feComponentTransfer><feFuncR type="linear" slope="0.62"/><feFuncG type="linear" slope="0.62"/><feFuncB type="linear" slope="0.7"/></feComponentTransfer></filter>
<filter id="soft" x="-40%" y="-40%" width="180%" height="180%"><feGaussianBlur stdDeviation="3"/></filter>
<g id="c0">
<path d="M2,23 a58,21 0 0 1 116,0 l0,16 a58,21 0 0 1 -116,0 z" fill="url(#wr)"/>
<g clip-path="url(#wallc)">
<rect x="2.0" y="23" width="17.0" height="38" fill="url(#wg)"/>
<line x1="19.0" y1="23" x2="19.0" y2="60.8" stroke="#0a0a0c" stroke-opacity="0.5" stroke-width="1.5"/>
<rect x="2" y="23" width="116" height="38" fill="url(#mill)"/>
<path d="M2,23 l0,16 a58,21 0 0 0 116,0 l0,-16 a58,21 0 0 0 -116,0 z" fill="url(#curve)"/>
<path d="M2,24.6 a58,21 0 0 0 116,0" fill="none" stroke="#ffffff" stroke-opacity="0.4" stroke-width="1.4"/>
</g>
<ellipse cx="60" cy="23" rx="58" ry="21" fill="url(#pile-face-rim)"/>
<g transform="translate(60,23) scale(1.02778,0.37216) translate(-60,-60)">
<use href="#logoart" xlink:href="#logoart" transform="rotate(0 60 60)"/>
</g>
<g clip-path="url(#facec)"><rect x="2" y="2" width="116" height="42" fill="url(#gloss)"/></g>
<path d="M10.9,12.9 A56.7,20.2 0 0 1 109.1,12.9" fill="none" stroke="#ffffff" stroke-opacity="0.28" stroke-width="1.2"/>
<path d="M2,23 a58,21 0 0 1 116,0 l0,16 a58,21 0 0 1 -116,0 z" fill="none" stroke="#150d08" stroke-width="2.8" stroke-linejoin="round"/>
</g>
<g id="c22">
<path d="M2,23 a58,21 0 0 1 116,0 l0,16 a58,21 0 0 1 -116,0 z" fill="url(#wr)"/>
<g clip-path="url(#wallc)">
<rect x="2.0" y="23" width="35.3" height="38" fill="url(#wg)"/>
<line x1="37.3" y1="23" x2="37.3" y2="60.8" stroke="#0a0a0c" stroke-opacity="0.5" stroke-width="1.5"/>
<rect x="2" y="23" width="116" height="38" fill="url(#mill)"/>
<path d="M2,23 l0,16 a58,21 0 0 0 116,0 l0,-16 a58,21 0 0 0 -116,0 z" fill="url(#curve)"/>
<path d="M2,24.6 a58,21 0 0 0 116,0" fill="none" stroke="#ffffff" stroke-opacity="0.4" stroke-width="1.4"/>
</g>
<ellipse cx="60" cy="23" rx="58" ry="21" fill="url(#pile-face-rim)"/>
<g transform="translate(60,23) scale(1.02778,0.37216) translate(-60,-60)">
<use href="#logoart" xlink:href="#logoart" transform="rotate(-22 60 60)"/>
</g>
<g clip-path="url(#facec)"><rect x="2" y="2" width="116" height="42" fill="url(#gloss)"/></g>
<path d="M10.9,12.9 A56.7,20.2 0 0 1 109.1,12.9" fill="none" stroke="#ffffff" stroke-opacity="0.28" stroke-width="1.2"/>
<path d="M2,23 a58,21 0 0 1 116,0 l0,16 a58,21 0 0 1 -116,0 z" fill="none" stroke="#150d08" stroke-width="2.8" stroke-linejoin="round"/>
</g>
<g id="c45">
<path d="M2,23 a58,21 0 0 1 116,0 l0,16 a58,21 0 0 1 -116,0 z" fill="url(#wr)"/>
<g clip-path="url(#wallc)">
<rect x="2.0" y="23" width="58.0" height="38" fill="url(#wg)"/>
<line x1="60.0" y1="23" x2="60.0" y2="60.8" stroke="#0a0a0c" stroke-opacity="0.5" stroke-width="1.5"/>
<rect x="2" y="23" width="116" height="38" fill="url(#mill)"/>
<path d="M2,23 l0,16 a58,21 0 0 0 116,0 l0,-16 a58,21 0 0 0 -116,0 z" fill="url(#curve)"/>
<path d="M2,24.6 a58,21 0 0 0 116,0" fill="none" stroke="#ffffff" stroke-opacity="0.4" stroke-width="1.4"/>
</g>
<ellipse cx="60" cy="23" rx="58" ry="21" fill="url(#pile-face-rim)"/>
<g transform="translate(60,23) scale(1.02778,0.37216) translate(-60,-60)">
<use href="#logoart" xlink:href="#logoart" transform="rotate(-45 60 60)"/>
</g>
<g clip-path="url(#facec)"><rect x="2" y="2" width="116" height="42" fill="url(#gloss)"/></g>
<path d="M10.9,12.9 A56.7,20.2 0 0 1 109.1,12.9" fill="none" stroke="#ffffff" stroke-opacity="0.28" stroke-width="1.2"/>
<path d="M2,23 a58,21 0 0 1 116,0 l0,16 a58,21 0 0 1 -116,0 z" fill="none" stroke="#150d08" stroke-width="2.8" stroke-linejoin="round"/>
</g>
<g id="c67">
<path d="M2,23 a58,21 0 0 1 116,0 l0,16 a58,21 0 0 1 -116,0 z" fill="url(#wr)"/>
<g clip-path="url(#wallc)">
<rect x="2.0" y="23" width="79.7" height="38" fill="url(#wg)"/>
<line x1="81.7" y1="23" x2="81.7" y2="60.8" stroke="#0a0a0c" stroke-opacity="0.5" stroke-width="1.5"/>
<rect x="2" y="23" width="116" height="38" fill="url(#mill)"/>
<path d="M2,23 l0,16 a58,21 0 0 0 116,0 l0,-16 a58,21 0 0 0 -116,0 z" fill="url(#curve)"/>
<path d="M2,24.6 a58,21 0 0 0 116,0" fill="none" stroke="#ffffff" stroke-opacity="0.4" stroke-width="1.4"/>
</g>
<ellipse cx="60" cy="23" rx="58" ry="21" fill="url(#pile-face-rim)"/>
<g transform="translate(60,23) scale(1.02778,0.37216) translate(-60,-60)">
<use href="#logoart" xlink:href="#logoart" transform="rotate(-67 60 60)"/>
</g>
<g clip-path="url(#facec)"><rect x="2" y="2" width="116" height="42" fill="url(#gloss)"/></g>
<path d="M10.9,12.9 A56.7,20.2 0 0 1 109.1,12.9" fill="none" stroke="#ffffff" stroke-opacity="0.28" stroke-width="1.2"/>
<path d="M2,23 a58,21 0 0 1 116,0 l0,16 a58,21 0 0 1 -116,0 z" fill="none" stroke="#150d08" stroke-width="2.8" stroke-linejoin="round"/>
</g>
<g id="c90">
<path d="M2,23 a58,21 0 0 1 116,0 l0,16 a58,21 0 0 1 -116,0 z" fill="url(#wr)"/>
<g clip-path="url(#wallc)">
<rect x="2.0" y="23" width="99.0" height="38" fill="url(#wg)"/>
<line x1="101.0" y1="23" x2="101.0" y2="60.8" stroke="#0a0a0c" stroke-opacity="0.5" stroke-width="1.5"/>
<rect x="2" y="23" width="116" height="38" fill="url(#mill)"/>
<path d="M2,23 l0,16 a58,21 0 0 0 116,0 l0,-16 a58,21 0 0 0 -116,0 z" fill="url(#curve)"/>
<path d="M2,24.6 a58,21 0 0 0 116,0" fill="none" stroke="#ffffff" stroke-opacity="0.4" stroke-width="1.4"/>
</g>
<ellipse cx="60" cy="23" rx="58" ry="21" fill="url(#pile-face-rim)"/>
<g transform="translate(60,23) scale(1.02778,0.37216) translate(-60,-60)">
<use href="#logoart" xlink:href="#logoart" transform="rotate(-90 60 60)"/>
</g>
<g clip-path="url(#facec)"><rect x="2" y="2" width="116" height="42" fill="url(#gloss)"/></g>
<path d="M10.9,12.9 A56.7,20.2 0 0 1 109.1,12.9" fill="none" stroke="#ffffff" stroke-opacity="0.28" stroke-width="1.2"/>
<path d="M2,23 a58,21 0 0 1 116,0 l0,16 a58,21 0 0 1 -116,0 z" fill="none" stroke="#150d08" stroke-width="2.8" stroke-linejoin="round"/>
</g>
<g id="c112">
<path d="M2,23 a58,21 0 0 1 116,0 l0,16 a58,21 0 0 1 -116,0 z" fill="url(#wr)"/>
<g clip-path="url(#wallc)">
<rect x="2.0" y="23" width="111.4" height="38" fill="url(#wg)"/>
<line x1="113.4" y1="23" x2="113.4" y2="60.8" stroke="#0a0a0c" stroke-opacity="0.5" stroke-width="1.5"/>
<rect x="2" y="23" width="116" height="38" fill="url(#mill)"/>
<path d="M2,23 l0,16 a58,21 0 0 0 116,0 l0,-16 a58,21 0 0 0 -116,0 z" fill="url(#curve)"/>
<path d="M2,24.6 a58,21 0 0 0 116,0" fill="none" stroke="#ffffff" stroke-opacity="0.4" stroke-width="1.4"/>
</g>
<ellipse cx="60" cy="23" rx="58" ry="21" fill="url(#pile-face-rim)"/>
<g transform="translate(60,23) scale(1.02778,0.37216) translate(-60,-60)">
<use href="#logoart" xlink:href="#logoart" transform="rotate(-112 60 60)"/>
</g>
<g clip-path="url(#facec)"><rect x="2" y="2" width="116" height="42" fill="url(#gloss)"/></g>
<path d="M10.9,12.9 A56.7,20.2 0 0 1 109.1,12.9" fill="none" stroke="#ffffff" stroke-opacity="0.28" stroke-width="1.2"/>
<path d="M2,23 a58,21 0 0 1 116,0 l0,16 a58,21 0 0 1 -116,0 z" fill="none" stroke="#150d08" stroke-width="2.8" stroke-linejoin="round"/>
</g>
<g id="c135">
<path d="M2,23 a58,21 0 0 1 116,0 l0,16 a58,21 0 0 1 -116,0 z" fill="url(#wr)"/>
<g clip-path="url(#wallc)">
<rect x="2.0" y="23" width="116.0" height="38" fill="url(#wg)"/>

<rect x="2" y="23" width="116" height="38" fill="url(#mill)"/>
<path d="M2,23 l0,16 a58,21 0 0 0 116,0 l0,-16 a58,21 0 0 0 -116,0 z" fill="url(#curve)"/>
<path d="M2,24.6 a58,21 0 0 0 116,0" fill="none" stroke="#ffffff" stroke-opacity="0.4" stroke-width="1.4"/>
</g>
<ellipse cx="60" cy="23" rx="58" ry="21" fill="url(#pile-face-rim)"/>
<g transform="translate(60,23) scale(1.02778,0.37216) translate(-60,-60)">
<use href="#logoart" xlink:href="#logoart" transform="rotate(-135 60 60)"/>
</g>
<g clip-path="url(#facec)"><rect x="2" y="2" width="116" height="42" fill="url(#gloss)"/></g>
<path d="M10.9,12.9 A56.7,20.2 0 0 1 109.1,12.9" fill="none" stroke="#ffffff" stroke-opacity="0.28" stroke-width="1.2"/>
<path d="M2,23 a58,21 0 0 1 116,0 l0,16 a58,21 0 0 1 -116,0 z" fill="none" stroke="#150d08" stroke-width="2.8" stroke-linejoin="round"/>
</g>
<g id="c157">
<path d="M2,23 a58,21 0 0 1 116,0 l0,16 a58,21 0 0 1 -116,0 z" fill="url(#wr)"/>
<g clip-path="url(#wallc)">
<rect x="6.2" y="23" width="111.8" height="38" fill="url(#wg)"/>
<line x1="6.2" y1="23" x2="6.2" y2="60.8" stroke="#0a0a0c" stroke-opacity="0.5" stroke-width="1.5"/>
<rect x="2" y="23" width="116" height="38" fill="url(#mill)"/>
<path d="M2,23 l0,16 a58,21 0 0 0 116,0 l0,-16 a58,21 0 0 0 -116,0 z" fill="url(#curve)"/>
<path d="M2,24.6 a58,21 0 0 0 116,0" fill="none" stroke="#ffffff" stroke-opacity="0.4" stroke-width="1.4"/>
</g>
<ellipse cx="60" cy="23" rx="58" ry="21" fill="url(#pile-face-rim)"/>
<g transform="translate(60,23) scale(1.02778,0.37216) translate(-60,-60)">
<use href="#logoart" xlink:href="#logoart" transform="rotate(-157 60 60)"/>
</g>
<g clip-path="url(#facec)"><rect x="2" y="2" width="116" height="42" fill="url(#gloss)"/></g>
<path d="M10.9,12.9 A56.7,20.2 0 0 1 109.1,12.9" fill="none" stroke="#ffffff" stroke-opacity="0.28" stroke-width="1.2"/>
<path d="M2,23 a58,21 0 0 1 116,0 l0,16 a58,21 0 0 1 -116,0 z" fill="none" stroke="#150d08" stroke-width="2.8" stroke-linejoin="round"/>
</g>
<g id="c180">
<path d="M2,23 a58,21 0 0 1 116,0 l0,16 a58,21 0 0 1 -116,0 z" fill="url(#wr)"/>
<g clip-path="url(#wallc)">
<rect x="19.0" y="23" width="99.0" height="38" fill="url(#wg)"/>
<line x1="19.0" y1="23" x2="19.0" y2="60.8" stroke="#0a0a0c" stroke-opacity="0.5" stroke-width="1.5"/>
<rect x="2" y="23" width="116" height="38" fill="url(#mill)"/>
<path d="M2,23 l0,16 a58,21 0 0 0 116,0 l0,-16 a58,21 0 0 0 -116,0 z" fill="url(#curve)"/>
<path d="M2,24.6 a58,21 0 0 0 116,0" fill="none" stroke="#ffffff" stroke-opacity="0.4" stroke-width="1.4"/>
</g>
<ellipse cx="60" cy="23" rx="58" ry="21" fill="url(#pile-face-rim)"/>
<g transform="translate(60,23) scale(1.02778,0.37216) translate(-60,-60)">
<use href="#logoart" xlink:href="#logoart" transform="rotate(-180 60 60)"/>
</g>
<g clip-path="url(#facec)"><rect x="2" y="2" width="116" height="42" fill="url(#gloss)"/></g>
<path d="M10.9,12.9 A56.7,20.2 0 0 1 109.1,12.9" fill="none" stroke="#ffffff" stroke-opacity="0.28" stroke-width="1.2"/>
<path d="M2,23 a58,21 0 0 1 116,0 l0,16 a58,21 0 0 1 -116,0 z" fill="none" stroke="#150d08" stroke-width="2.8" stroke-linejoin="round"/>
</g>
<g id="c202">
<path d="M2,23 a58,21 0 0 1 116,0 l0,16 a58,21 0 0 1 -116,0 z" fill="url(#wr)"/>
<g clip-path="url(#wallc)">
<rect x="37.3" y="23" width="80.7" height="38" fill="url(#wg)"/>
<line x1="37.3" y1="23" x2="37.3" y2="60.8" stroke="#0a0a0c" stroke-opacity="0.5" stroke-width="1.5"/>
<rect x="2" y="23" width="116" height="38" fill="url(#mill)"/>
<path d="M2,23 l0,16 a58,21 0 0 0 116,0 l0,-16 a58,21 0 0 0 -116,0 z" fill="url(#curve)"/>
<path d="M2,24.6 a58,21 0 0 0 116,0" fill="none" stroke="#ffffff" stroke-opacity="0.4" stroke-width="1.4"/>
</g>
<ellipse cx="60" cy="23" rx="58" ry="21" fill="url(#pile-face-rim)"/>
<g transform="translate(60,23) scale(1.02778,0.37216) translate(-60,-60)">
<use href="#logoart" xlink:href="#logoart" transform="rotate(-202 60 60)"/>
</g>
<g clip-path="url(#facec)"><rect x="2" y="2" width="116" height="42" fill="url(#gloss)"/></g>
<path d="M10.9,12.9 A56.7,20.2 0 0 1 109.1,12.9" fill="none" stroke="#ffffff" stroke-opacity="0.28" stroke-width="1.2"/>
<path d="M2,23 a58,21 0 0 1 116,0 l0,16 a58,21 0 0 1 -116,0 z" fill="none" stroke="#150d08" stroke-width="2.8" stroke-linejoin="round"/>
</g>
<g id="c225">
<path d="M2,23 a58,21 0 0 1 116,0 l0,16 a58,21 0 0 1 -116,0 z" fill="url(#wr)"/>
<g clip-path="url(#wallc)">
<rect x="60.0" y="23" width="58.0" height="38" fill="url(#wg)"/>
<line x1="60.0" y1="23" x2="60.0" y2="60.8" stroke="#0a0a0c" stroke-opacity="0.5" stroke-width="1.5"/>
<rect x="2" y="23" width="116" height="38" fill="url(#mill)"/>
<path d="M2,23 l0,16 a58,21 0 0 0 116,0 l0,-16 a58,21 0 0 0 -116,0 z" fill="url(#curve)"/>
<path d="M2,24.6 a58,21 0 0 0 116,0" fill="none" stroke="#ffffff" stroke-opacity="0.4" stroke-width="1.4"/>
</g>
<ellipse cx="60" cy="23" rx="58" ry="21" fill="url(#pile-face-rim)"/>
<g transform="translate(60,23) scale(1.02778,0.37216) translate(-60,-60)">
<use href="#logoart" xlink:href="#logoart" transform="rotate(-225 60 60)"/>
</g>
<g clip-path="url(#facec)"><rect x="2" y="2" width="116" height="42" fill="url(#gloss)"/></g>
<path d="M10.9,12.9 A56.7,20.2 0 0 1 109.1,12.9" fill="none" stroke="#ffffff" stroke-opacity="0.28" stroke-width="1.2"/>
<path d="M2,23 a58,21 0 0 1 116,0 l0,16 a58,21 0 0 1 -116,0 z" fill="none" stroke="#150d08" stroke-width="2.8" stroke-linejoin="round"/>
</g>
<g id="c247">
<path d="M2,23 a58,21 0 0 1 116,0 l0,16 a58,21 0 0 1 -116,0 z" fill="url(#wr)"/>
<g clip-path="url(#wallc)">
<rect x="81.7" y="23" width="36.3" height="38" fill="url(#wg)"/>
<line x1="81.7" y1="23" x2="81.7" y2="60.8" stroke="#0a0a0c" stroke-opacity="0.5" stroke-width="1.5"/>
<rect x="2" y="23" width="116" height="38" fill="url(#mill)"/>
<path d="M2,23 l0,16 a58,21 0 0 0 116,0 l0,-16 a58,21 0 0 0 -116,0 z" fill="url(#curve)"/>
<path d="M2,24.6 a58,21 0 0 0 116,0" fill="none" stroke="#ffffff" stroke-opacity="0.4" stroke-width="1.4"/>
</g>
<ellipse cx="60" cy="23" rx="58" ry="21" fill="url(#pile-face-rim)"/>
<g transform="translate(60,23) scale(1.02778,0.37216) translate(-60,-60)">
<use href="#logoart" xlink:href="#logoart" transform="rotate(-247 60 60)"/>
</g>
<g clip-path="url(#facec)"><rect x="2" y="2" width="116" height="42" fill="url(#gloss)"/></g>
<path d="M10.9,12.9 A56.7,20.2 0 0 1 109.1,12.9" fill="none" stroke="#ffffff" stroke-opacity="0.28" stroke-width="1.2"/>
<path d="M2,23 a58,21 0 0 1 116,0 l0,16 a58,21 0 0 1 -116,0 z" fill="none" stroke="#150d08" stroke-width="2.8" stroke-linejoin="round"/>
</g>
<g id="c270">
<path d="M2,23 a58,21 0 0 1 116,0 l0,16 a58,21 0 0 1 -116,0 z" fill="url(#wr)"/>
<g clip-path="url(#wallc)">
<rect x="101.0" y="23" width="17.0" height="38" fill="url(#wg)"/>
<line x1="101.0" y1="23" x2="101.0" y2="60.8" stroke="#0a0a0c" stroke-opacity="0.5" stroke-width="1.5"/>
<rect x="2" y="23" width="116" height="38" fill="url(#mill)"/>
<path d="M2,23 l0,16 a58,21 0 0 0 116,0 l0,-16 a58,21 0 0 0 -116,0 z" fill="url(#curve)"/>
<path d="M2,24.6 a58,21 0 0 0 116,0" fill="none" stroke="#ffffff" stroke-opacity="0.4" stroke-width="1.4"/>
</g>
<ellipse cx="60" cy="23" rx="58" ry="21" fill="url(#pile-face-rim)"/>
<g transform="translate(60,23) scale(1.02778,0.37216) translate(-60,-60)">
<use href="#logoart" xlink:href="#logoart" transform="rotate(-270 60 60)"/>
</g>
<g clip-path="url(#facec)"><rect x="2" y="2" width="116" height="42" fill="url(#gloss)"/></g>
<path d="M10.9,12.9 A56.7,20.2 0 0 1 109.1,12.9" fill="none" stroke="#ffffff" stroke-opacity="0.28" stroke-width="1.2"/>
<path d="M2,23 a58,21 0 0 1 116,0 l0,16 a58,21 0 0 1 -116,0 z" fill="none" stroke="#150d08" stroke-width="2.8" stroke-linejoin="round"/>
</g>
<g id="c292">
<path d="M2,23 a58,21 0 0 1 116,0 l0,16 a58,21 0 0 1 -116,0 z" fill="url(#wr)"/>
<g clip-path="url(#wallc)">
<rect x="113.4" y="23" width="4.6" height="38" fill="url(#wg)"/>
<line x1="113.4" y1="23" x2="113.4" y2="60.8" stroke="#0a0a0c" stroke-opacity="0.5" stroke-width="1.5"/>
<rect x="2" y="23" width="116" height="38" fill="url(#mill)"/>
<path d="M2,23 l0,16 a58,21 0 0 0 116,0 l0,-16 a58,21 0 0 0 -116,0 z" fill="url(#curve)"/>
<path d="M2,24.6 a58,21 0 0 0 116,0" fill="none" stroke="#ffffff" stroke-opacity="0.4" stroke-width="1.4"/>
</g>
<ellipse cx="60" cy="23" rx="58" ry="21" fill="url(#pile-face-rim)"/>
<g transform="translate(60,23) scale(1.02778,0.37216) translate(-60,-60)">
<use href="#logoart" xlink:href="#logoart" transform="rotate(-292 60 60)"/>
</g>
<g clip-path="url(#facec)"><rect x="2" y="2" width="116" height="42" fill="url(#gloss)"/></g>
<path d="M10.9,12.9 A56.7,20.2 0 0 1 109.1,12.9" fill="none" stroke="#ffffff" stroke-opacity="0.28" stroke-width="1.2"/>
<path d="M2,23 a58,21 0 0 1 116,0 l0,16 a58,21 0 0 1 -116,0 z" fill="none" stroke="#150d08" stroke-width="2.8" stroke-linejoin="round"/>
</g>
<g id="c315">
<path d="M2,23 a58,21 0 0 1 116,0 l0,16 a58,21 0 0 1 -116,0 z" fill="url(#wr)"/>
<g clip-path="url(#wallc)">


<rect x="2" y="23" width="116" height="38" fill="url(#mill)"/>
<path d="M2,23 l0,16 a58,21 0 0 0 116,0 l0,-16 a58,21 0 0 0 -116,0 z" fill="url(#curve)"/>
<path d="M2,24.6 a58,21 0 0 0 116,0" fill="none" stroke="#ffffff" stroke-opacity="0.4" stroke-width="1.4"/>
</g>
<ellipse cx="60" cy="23" rx="58" ry="21" fill="url(#pile-face-rim)"/>
<g transform="translate(60,23) scale(1.02778,0.37216) translate(-60,-60)">
<use href="#logoart" xlink:href="#logoart" transform="rotate(-315 60 60)"/>
</g>
<g clip-path="url(#facec)"><rect x="2" y="2" width="116" height="42" fill="url(#gloss)"/></g>
<path d="M10.9,12.9 A56.7,20.2 0 0 1 109.1,12.9" fill="none" stroke="#ffffff" stroke-opacity="0.28" stroke-width="1.2"/>
<path d="M2,23 a58,21 0 0 1 116,0 l0,16 a58,21 0 0 1 -116,0 z" fill="none" stroke="#150d08" stroke-width="2.8" stroke-linejoin="round"/>
</g>
<g id="c337">
<path d="M2,23 a58,21 0 0 1 116,0 l0,16 a58,21 0 0 1 -116,0 z" fill="url(#wr)"/>
<g clip-path="url(#wallc)">
<rect x="2.0" y="23" width="4.2" height="38" fill="url(#wg)"/>
<line x1="6.2" y1="23" x2="6.2" y2="60.8" stroke="#0a0a0c" stroke-opacity="0.5" stroke-width="1.5"/>
<rect x="2" y="23" width="116" height="38" fill="url(#mill)"/>
<path d="M2,23 l0,16 a58,21 0 0 0 116,0 l0,-16 a58,21 0 0 0 -116,0 z" fill="url(#curve)"/>
<path d="M2,24.6 a58,21 0 0 0 116,0" fill="none" stroke="#ffffff" stroke-opacity="0.4" stroke-width="1.4"/>
</g>
<ellipse cx="60" cy="23" rx="58" ry="21" fill="url(#pile-face-rim)"/>
<g transform="translate(60,23) scale(1.02778,0.37216) translate(-60,-60)">
<use href="#logoart" xlink:href="#logoart" transform="rotate(-337 60 60)"/>
</g>
<g clip-path="url(#facec)"><rect x="2" y="2" width="116" height="42" fill="url(#gloss)"/></g>
<path d="M10.9,12.9 A56.7,20.2 0 0 1 109.1,12.9" fill="none" stroke="#ffffff" stroke-opacity="0.28" stroke-width="1.2"/>
<path d="M2,23 a58,21 0 0 1 116,0 l0,16 a58,21 0 0 1 -116,0 z" fill="none" stroke="#150d08" stroke-width="2.8" stroke-linejoin="round"/>
</g></defs>
<g filter="url(#dim2)">
<use href="#c225" xlink:href="#c225" transform="translate(204.4 152.1) scale(0.70)"/>
<use href="#c315" xlink:href="#c315" transform="translate(206.7 140.9) scale(0.70)"/>
<use href="#c135" xlink:href="#c135" transform="translate(202.6 129.7) scale(0.70)"/>
<use href="#c225" xlink:href="#c225" transform="translate(205.8 118.5) scale(0.70)"/>
<use href="#c157" xlink:href="#c157" transform="translate(203.5 107.3) scale(0.70)"/>
<use href="#c90" xlink:href="#c90" transform="translate(206.2 96.1) scale(0.70)"/>
<use href="#c67" xlink:href="#c67" transform="translate(204.4 84.9) scale(0.70)"/>
<use href="#c247" xlink:href="#c247" transform="translate(329.6 152.2) scale(0.70)"/>
<use href="#c225" xlink:href="#c225" transform="translate(331.9 141.0) scale(0.70)"/>
<use href="#c67" xlink:href="#c67" transform="translate(327.8 129.8) scale(0.70)"/>
<use href="#c45" xlink:href="#c45" transform="translate(331.0 118.6) scale(0.70)"/>
<use href="#c225" xlink:href="#c225" transform="translate(328.7 107.4) scale(0.70)"/>
<use href="#c270" xlink:href="#c270" transform="translate(331.4 96.2) scale(0.70)"/>
<use href="#c0" xlink:href="#c0" transform="translate(329.6 85.0) scale(0.70)"/>
<use href="#c180" xlink:href="#c180" transform="translate(331.9 73.8) scale(0.70)"/>
<use href="#c90" xlink:href="#c90" transform="translate(327.8 62.6) scale(0.70)"/>
<use href="#c0" xlink:href="#c0" transform="translate(430.0 150.8) scale(0.70)"/>
<use href="#c0" xlink:href="#c0" transform="translate(432.3 139.6) scale(0.70)"/>
<use href="#c45" xlink:href="#c45" transform="translate(428.2 128.4) scale(0.70)"/>
<use href="#c202" xlink:href="#c202" transform="translate(431.4 117.2) scale(0.70)"/>
<use href="#c247" xlink:href="#c247" transform="translate(429.1 106.0) scale(0.70)"/>
<use href="#c315" xlink:href="#c315" transform="translate(431.8 94.8) scale(0.70)"/>
<use href="#c225" xlink:href="#c225" transform="translate(430.0 83.6) scale(0.70)"/>
<use href="#c0" xlink:href="#c0" transform="translate(432.3 72.4) scale(0.70)"/>
<use href="#c180" xlink:href="#c180" transform="translate(428.2 61.2) scale(0.70)"/>
<use href="#c157" xlink:href="#c157" transform="translate(557.2 151.3) scale(0.70)"/>
<use href="#c247" xlink:href="#c247" transform="translate(559.5 140.1) scale(0.70)"/>
<use href="#c270" xlink:href="#c270" transform="translate(555.4 128.9) scale(0.70)"/>
<use href="#c292" xlink:href="#c292" transform="translate(558.6 117.7) scale(0.70)"/>
<use href="#c112" xlink:href="#c112" transform="translate(556.3 106.5) scale(0.70)"/>
<use href="#c0" xlink:href="#c0" transform="translate(559.0 95.3) scale(0.70)"/>
<use href="#c45" xlink:href="#c45" transform="translate(557.2 84.1) scale(0.70)"/>
<use href="#c157" xlink:href="#c157" transform="translate(559.5 72.9) scale(0.70)"/>
<use href="#c337" xlink:href="#c337" transform="translate(555.4 61.7) scale(0.70)"/>
</g>
<g filter="url(#dim1)">
<use href="#c337" xlink:href="#c337" transform="translate(12.0 189.1) scale(0.72)"/>
<use href="#c292" xlink:href="#c292" transform="translate(13.3 177.6) scale(0.72)"/>
<use href="#c22" xlink:href="#c22" transform="translate(8.0 166.1) scale(0.72)"/>
<use href="#c292" xlink:href="#c292" transform="translate(10.3 154.5) scale(0.72)"/>
<use href="#c90" xlink:href="#c90" transform="translate(6.9 143.0) scale(0.72)"/>
<use href="#c315" xlink:href="#c315" transform="translate(139.8 186.7) scale(0.72)"/>
<use href="#c270" xlink:href="#c270" transform="translate(142.1 175.2) scale(0.72)"/>
<use href="#c90" xlink:href="#c90" transform="translate(137.9 163.7) scale(0.72)"/>
<use href="#c247" xlink:href="#c247" transform="translate(141.2 152.2) scale(0.72)"/>
<use href="#c45" xlink:href="#c45" transform="translate(138.8 140.7) scale(0.72)"/>
<use href="#c202" xlink:href="#c202" transform="translate(141.7 129.1) scale(0.72)"/>
<use href="#c202" xlink:href="#c202" transform="translate(139.8 117.6) scale(0.72)"/>
<use href="#c180" xlink:href="#c180" transform="translate(142.1 106.1) scale(0.72)"/>
<use href="#c0" xlink:href="#c0" transform="translate(265.8 186.7) scale(0.72)"/>
<use href="#c67" xlink:href="#c67" transform="translate(268.1 175.2) scale(0.72)"/>
<use href="#c157" xlink:href="#c157" transform="translate(263.9 163.7) scale(0.72)"/>
<use href="#c0" xlink:href="#c0" transform="translate(267.2 152.2) scale(0.72)"/>
<use href="#c45" xlink:href="#c45" transform="translate(264.9 140.7) scale(0.72)"/>
<use href="#c157" xlink:href="#c157" transform="translate(267.7 129.1) scale(0.72)"/>
<use href="#c112" xlink:href="#c112" transform="translate(265.8 117.6) scale(0.72)"/>
<use href="#c157" xlink:href="#c157" transform="translate(268.1 106.1) scale(0.72)"/>
<use href="#c22" xlink:href="#c22" transform="translate(263.9 94.6) scale(0.72)"/>
<use href="#c45" xlink:href="#c45" transform="translate(492.4 187.5) scale(0.72)"/>
<use href="#c67" xlink:href="#c67" transform="translate(492.8 175.9) scale(0.72)"/>
<use href="#c292" xlink:href="#c292" transform="translate(486.6 164.4) scale(0.72)"/>
<use href="#c292" xlink:href="#c292" transform="translate(488.0 152.9) scale(0.72)"/>
<use href="#c67" xlink:href="#c67" transform="translate(483.7 141.4) scale(0.72)"/>
<use href="#c22" xlink:href="#c22" transform="translate(484.5 129.9) scale(0.72)"/>
<use href="#c0" xlink:href="#c0" transform="translate(621.7 188.3) scale(0.72)"/>
<use href="#c112" xlink:href="#c112" transform="translate(624.9 176.8) scale(0.72)"/>
<use href="#c292" xlink:href="#c292" transform="translate(621.5 165.3) scale(0.72)"/>
<use href="#c337" xlink:href="#c337" transform="translate(625.6 153.8) scale(0.72)"/>
<use href="#c292" xlink:href="#c292" transform="translate(624.1 142.2) scale(0.72)"/>
</g>
<g filter="url(#dim1)">
<use href="#c157" xlink:href="#c157" transform="translate(202.0 224.4) scale(0.74)"/>
<use href="#c90" xlink:href="#c90" transform="translate(204.4 212.6) scale(0.74)"/>
<use href="#c112" xlink:href="#c112" transform="translate(200.1 200.7) scale(0.74)"/>
<use href="#c45" xlink:href="#c45" transform="translate(203.4 188.9) scale(0.74)"/>
<use href="#c292" xlink:href="#c292" transform="translate(201.0 177.1) scale(0.74)"/>
<use href="#c225" xlink:href="#c225" transform="translate(203.9 165.2) scale(0.74)"/>
<use href="#c112" xlink:href="#c112" transform="translate(202.0 153.4) scale(0.74)"/>
<use href="#c270" xlink:href="#c270" transform="translate(204.4 141.5) scale(0.74)"/>
<use href="#c292" xlink:href="#c292" transform="translate(327.2 223.1) scale(0.74)"/>
<use href="#c292" xlink:href="#c292" transform="translate(329.6 211.3) scale(0.74)"/>
<use href="#c22" xlink:href="#c22" transform="translate(325.3 199.5) scale(0.74)"/>
<use href="#c270" xlink:href="#c270" transform="translate(328.6 187.6) scale(0.74)"/>
<use href="#c0" xlink:href="#c0" transform="translate(326.2 175.8) scale(0.74)"/>
<use href="#c225" xlink:href="#c225" transform="translate(329.1 163.9) scale(0.74)"/>
<use href="#c22" xlink:href="#c22" transform="translate(327.2 152.1) scale(0.74)"/>
<use href="#c112" xlink:href="#c112" transform="translate(329.6 140.3) scale(0.74)"/>
<use href="#c202" xlink:href="#c202" transform="translate(427.6 223.9) scale(0.74)"/>
<use href="#c135" xlink:href="#c135" transform="translate(430.0 212.1) scale(0.74)"/>
<use href="#c270" xlink:href="#c270" transform="translate(425.7 200.2) scale(0.74)"/>
<use href="#c90" xlink:href="#c90" transform="translate(429.1 188.4) scale(0.74)"/>
<use href="#c45" xlink:href="#c45" transform="translate(426.6 176.5) scale(0.74)"/>
<use href="#c247" xlink:href="#c247" transform="translate(429.5 164.7) scale(0.74)"/>
<use href="#c315" xlink:href="#c315" transform="translate(427.6 152.9) scale(0.74)"/>
<use href="#c0" xlink:href="#c0" transform="translate(430.0 141.0) scale(0.74)"/>
<use href="#c202" xlink:href="#c202" transform="translate(554.8 223.0) scale(0.74)"/>
<use href="#c22" xlink:href="#c22" transform="translate(557.2 211.2) scale(0.74)"/>
<use href="#c0" xlink:href="#c0" transform="translate(552.9 199.3) scale(0.74)"/>
<use href="#c22" xlink:href="#c22" transform="translate(556.3 187.5) scale(0.74)"/>
<use href="#c135" xlink:href="#c135" transform="translate(553.9 175.6) scale(0.74)"/>
<use href="#c180" xlink:href="#c180" transform="translate(556.7 163.8) scale(0.74)"/>
</g>
<g filter="url(#dim1)">
<use href="#c337" xlink:href="#c337" transform="translate(9.6 259.0) scale(0.76)"/>
<use href="#c337" xlink:href="#c337" transform="translate(12.1 246.8) scale(0.76)"/>
<use href="#c225" xlink:href="#c225" transform="translate(7.6 234.7) scale(0.76)"/>
<use href="#c225" xlink:href="#c225" transform="translate(11.1 222.5) scale(0.76)"/>
<use href="#c202" xlink:href="#c202" transform="translate(8.6 210.4) scale(0.76)"/>
<use href="#c247" xlink:href="#c247" transform="translate(11.6 198.2) scale(0.76)"/>
<use href="#c22" xlink:href="#c22" transform="translate(9.6 186.0) scale(0.76)"/>
<use href="#c292" xlink:href="#c292" transform="translate(137.4 259.6) scale(0.76)"/>
<use href="#c45" xlink:href="#c45" transform="translate(139.0 247.5) scale(0.76)"/>
<use href="#c270" xlink:href="#c270" transform="translate(133.7 235.3) scale(0.76)"/>
<use href="#c315" xlink:href="#c315" transform="translate(136.3 223.1) scale(0.76)"/>
<use href="#c337" xlink:href="#c337" transform="translate(133.0 211.0) scale(0.76)"/>
<use href="#c225" xlink:href="#c225" transform="translate(135.2 198.8) scale(0.76)"/>
<use href="#c337" xlink:href="#c337" transform="translate(132.3 186.7) scale(0.76)"/>
<use href="#c247" xlink:href="#c247" transform="translate(134.0 174.5) scale(0.76)"/>
<use href="#c225" xlink:href="#c225" transform="translate(128.7 162.3) scale(0.76)"/>
<use href="#c202" xlink:href="#c202" transform="translate(263.4 260.0) scale(0.76)"/>
<use href="#c112" xlink:href="#c112" transform="translate(268.5 247.8) scale(0.76)"/>
<use href="#c22" xlink:href="#c22" transform="translate(266.8 235.6) scale(0.76)"/>
<use href="#c202" xlink:href="#c202" transform="translate(272.9 223.5) scale(0.76)"/>
<use href="#c337" xlink:href="#c337" transform="translate(273.1 211.3) scale(0.76)"/>
<use href="#c90" xlink:href="#c90" transform="translate(278.8 199.2) scale(0.76)"/>
<use href="#c247" xlink:href="#c247" transform="translate(279.5 187.0) scale(0.76)"/>
<use href="#c22" xlink:href="#c22" transform="translate(284.6 174.8) scale(0.76)"/>
<use href="#c135" xlink:href="#c135" transform="translate(490.0 258.9) scale(0.76)"/>
<use href="#c180" xlink:href="#c180" transform="translate(492.5 246.7) scale(0.76)"/>
<use href="#c22" xlink:href="#c22" transform="translate(488.0 234.6) scale(0.76)"/>
<use href="#c22" xlink:href="#c22" transform="translate(491.5 222.4) scale(0.76)"/>
<use href="#c247" xlink:href="#c247" transform="translate(489.0 210.3) scale(0.76)"/>
<use href="#c22" xlink:href="#c22" transform="translate(492.0 198.1) scale(0.76)"/>
<use href="#c270" xlink:href="#c270" transform="translate(490.0 185.9) scale(0.76)"/>
<use href="#c112" xlink:href="#c112" transform="translate(619.3 259.6) scale(0.76)"/>
<use href="#c90" xlink:href="#c90" transform="translate(621.8 247.5) scale(0.76)"/>
<use href="#c180" xlink:href="#c180" transform="translate(617.3 235.3) scale(0.76)"/>
<use href="#c135" xlink:href="#c135" transform="translate(620.8 223.1) scale(0.76)"/>
</g>
<g>
<use href="#c292" xlink:href="#c292" transform="translate(72.8 295.0) scale(0.78)"/>
<use href="#c180" xlink:href="#c180" transform="translate(199.6 295.1) scale(0.78)"/>
<use href="#c90" xlink:href="#c90" transform="translate(199.7 282.6) scale(0.78)"/>
<use href="#c157" xlink:href="#c157" transform="translate(192.6 270.1) scale(0.78)"/>
<use href="#c90" xlink:href="#c90" transform="translate(324.8 295.5) scale(0.78)"/>
<use href="#c22" xlink:href="#c22" transform="translate(326.0 283.0) scale(0.78)"/>
<use href="#c180" xlink:href="#c180" transform="translate(320.0 270.5) scale(0.78)"/>
<use href="#c22" xlink:href="#c22" transform="translate(425.2 295.0) scale(0.78)"/>
<use href="#c157" xlink:href="#c157" transform="translate(430.0 282.5) scale(0.78)"/>
<use href="#c315" xlink:href="#c315" transform="translate(427.6 270.0) scale(0.78)"/>
<use href="#c292" xlink:href="#c292" transform="translate(552.4 295.5) scale(0.78)"/>
<use href="#c157" xlink:href="#c157" transform="translate(557.1 283.0) scale(0.78)"/>
<use href="#c45" xlink:href="#c45" transform="translate(554.6 270.5) scale(0.78)"/>
<use href="#c225" xlink:href="#c225" transform="translate(788.1 297.1) scale(0.78)"/>
<use href="#c45" xlink:href="#c45" transform="translate(792.0 284.6) scale(0.78)"/>
<use href="#c157" xlink:href="#c157" transform="translate(788.9 272.2) scale(0.78)"/>
</g>
</svg>
