<svg xmlns="http://www.w3.org/2000/svg" viewBox="0 0 64 64" role="img" aria-labelledby="title">
  <title id="title">Lazy pass boon up-arrow emblem</title>
  <path d="M38 3 55 21h-9c6 9 7 19 2 28-8 14-28 17-39 5C-3 41 2 19 20 9c-3 12 0 23 9 31 6 5 13 7 20 4-9-5-14-13-14-23h-9Z" fill="#facc15" stroke="#090b11" stroke-width="4" stroke-linejoin="round"/>
  <path d="M20 14c-2 10 2 20 10 27 4 4 9 6 14 6-9 8-24 7-31-3-7-10-4-23 7-30Z" fill="#fff4b8"/>
  <path d="m49 8 2 4 5 .7-3.5 3.5.8 5-4.3-2.4-4.3 2.4.8-5-3.5-3.5 5-.7Z" fill="#a78bfa" stroke="#090b11" stroke-width="2" stroke-linejoin="round"/>
</svg>
