<svg xmlns="http://www.w3.org/2000/svg" viewBox="0 0 64 64" role="img" aria-labelledby="title">
  <title id="title">FLIP Degenerette boon up-arrow emblem</title>
  <path d="M32 3 54 24h-8c7 5 11 12 11 20 0 11-11 17-25 17S7 54 7 42c0-8 4-14 11-18h-8Z" fill="#f59e0b" stroke="#090b11" stroke-width="4" stroke-linejoin="round"/>
  <path d="M13 43c0 8 8 12 19 12s19-4 19-12" fill="none" stroke="#fff1bd" stroke-width="3" stroke-linecap="round" stroke-dasharray="5 5"/>
  <path d="M34 14c1 9 11 14 11 27a13 13 0 0 1-26 0c0-9 6-16 12-27 0 8 2 13 5 16 1-6 0-11-2-16Z" fill="#fff8dc" stroke="#090b11" stroke-width="2.5" stroke-linejoin="round"/>
  <path d="M32 31c1 5 6 8 6 13a6 6 0 0 1-12 0c0-4 2-7 6-13Z" fill="#fb7185"/>
</svg>
