<svg xmlns="http://www.w3.org/2000/svg" viewBox="-18 -18 36 36">
  <g transform="matrix(0.055107 0 0 0.055107 -14.108 -14.108)">
      <g fill="#30d100" stroke="#30d100" style="vector-effect:non-scaling-stroke"><g transform="translate(0 0) scale(16)"><g id="ico"><path d="M2.2 9.08c2.54-4.2 8.74-7.17 15.6-7.17 4.57 0 8.66 1.07 12.38 3.75l.03 6.04c-5.05-3.85-11.35-5.65-17.4-3.35a6.81 6.81 0 1 1-10.62.73m5.58 5.2a1.4 1.4 0 1 0 0-2.8 1.4 1.4 0 0 0 0 2.8m16.28 2.98a1.4 1.4 0 1 0 0 2.8 1.4 1.4 0 0 0 0-2.8m5.58 5.2c-2.55 4.2-8.75 7.17-15.61 7.17-4.57 0-8.66-1.07-12.38-3.75l-.03-6.04c5.05 3.85 11.35 5.66 17.4 3.36a6.81 6.81 0 1 1 10.62-.73z"/></g></g></g>
    </g>
  
</svg>
