<svg xmlns="http://www.w3.org/2000/svg" viewBox="-18 -18 36 36">
  <g transform="matrix(0.055107 0 0 0.055107 -14.108 -14.108)">
      <g fill="#f409cd" stroke="#f409cd" style="vector-effect:non-scaling-stroke"><g transform="translate(0 0) scale(32)"><g id="ico"><path fill-rule="evenodd" d="M6.36 4.2a1.97 1.97 0 1 1 3.9.19l-1.54 7.16a3.68 3.68 0 1 0 7.28.77V10h-2v2.32a1.68 1.68 0 1 1-3.33-.35l1.54-7.16a3.97 3.97 0 1 0-7.84-.4l.43 3.84A3.5 3.5 0 0 0 0 11.5a3.5 3.5 0 1 0 7 0V9.94zM5 11.5a1.5 1.5 0 1 0-3 0 1.5 1.5 0 0 0 3 0" clip-rule="evenodd"/></g></g></g>
    </g>
  
</svg>
