<svg xmlns="http://www.w3.org/2000/svg" viewBox="-18 -18 36 36">
  <g transform="matrix(0.055107 0 0 0.055107 -14.108 -14.108)">
      <g fill="#7c2bff" stroke="#7c2bff" style="vector-effect:non-scaling-stroke"><g transform="translate(0 0) scale(16)"><g id="ico"><path d="M2.14 23.78H29.8v5.17H2.14zm16.13-4.18v-3.18a4.8 4.8 0 0 0 2.55-4.21c0-2.64-2.18-4.78-4.86-4.78s-4.87 2.14-4.87 4.78c0 1.78 1 3.34 2.46 4.16v3.23l-.02 1.97H2.14V16.4h4.13a9.6 9.6 0 0 1-.97-4.2c0-5.56 4.78-10.06 10.67-10.06s10.66 4.5 10.66 10.06q-.01 2.26-.97 4.2h4.13v5.17H18.27z"/></g></g></g>
    </g>
  
</svg>
