<?xml version="1.0" encoding="UTF-8" standalone="no"?>
<svg
   viewBox="0 0 120 120"
   version="1.1"
   id="svg6"
   sodipodi:docname="flame-logo.svg"
   inkscape:version="1.4.2 (ebf0e940d0, 2025-05-08)"
   xmlns:inkscape="http://www.inkscape.org/namespaces/inkscape"
   xmlns:sodipodi="http://sodipodi.sourceforge.net/DTD/sodipodi-0.dtd"
   xmlns="http://www.w3.org/2000/svg"
   xmlns:svg="http://www.w3.org/2000/svg">
  <defs
     id="defs6" />
  <sodipodi:namedview
     id="namedview6"
     pagecolor="#ffffff"
     bordercolor="#000000"
     borderopacity="0.25"
     inkscape:showpageshadow="2"
     inkscape:pageopacity="0.0"
     inkscape:pagecheckerboard="0"
     inkscape:deskcolor="#d1d1d1"
     inkscape:zoom="9.5333333"
     inkscape:cx="60"
     inkscape:cy="60"
     inkscape:window-width="1920"
     inkscape:window-height="1012"
     inkscape:window-x="0"
     inkscape:window-y="0"
     inkscape:window-maximized="1"
     inkscape:current-layer="svg6" />
  <circle
     cx="60"
     cy="60"
     r="54"
     fill="#ed0e11"
     id="circle1" />
  <circle
     cx="60"
     cy="60"
     r="40.5"
     fill="#111111"
     id="circle2" />
  <circle
     cx="60"
     cy="60"
     r="31.5"
     fill="#ffffff"
     id="circle3" />
  <g
     transform="matrix(1.26,0,0,1.26,59.714594,49.634935)"
     id="g6">
    <clipPath
       id="flame-clip">
      <circle
         cx="0"
         cy="0"
         r="31.5"
         id="circle4" />
    </clipPath>
    <g
       clip-path="url(#flame-clip)"
       id="g5">
      <g
         transform="matrix(0.13,0,0,0.13,-56.16,-32.76)"
         id="g4">
        <path
           fill="#111111"
           d="m 431.48,504.54 c -5.24,-10.41 -12.36,-18.75 -21.62,-24.98 -6.91,-4.65 -14.21,-8.76 -21.56,-12.69 -12.95,-6.93 -26.54,-12.66 -38.78,-20.91 -19.24,-12.96 -31.77,-30.57 -36.56,-53.37 -3.66,-17.46 -2.13,-34.69 2.89,-51.71 4.01,-13.6 10.35,-26.15 16.95,-38.6 7.71,-14.54 15.86,-28.87 21.81,-44.28 3.39,-8.77 5.94,-17.76 7.2,-27.11 0,3.69 0.24,7.4 -0.04,11.07 -1.48,19.17 -7.44,37.4 -11.94,55.94 -3.57,14.72 -6.92,29.46 -6.53,44.78 0.46,18.05 6.14,34.08 19.02,46.86 9.15,9.09 19.11,17.38 28.83,25.89 8.46,7.41 17.32,14.37 24.28,23.36 7.48,9.66 11.24,20.77 13.22,32.63 0.32,1.93 0.63,3.86 1.02,6.22 4.22,-6.71 8.24,-12.99 12.15,-19.34 2.97,-4.81 5.94,-9.63 8.66,-14.58 8.98,-16.34 8,-31.83 -4.22,-46.28 -6.7,-7.92 -13.41,-15.82 -20.01,-23.82 -4.83,-5.86 -9.23,-12.01 -10.54,-19.77 -1.49,-8.9 0.02,-17.43 3.25,-25.74 3.45,-8.89 7.2,-17.67 10.28,-26.69 3.52,-10.29 5.13,-21.02 5.5,-31.89 0.14,-4.19 -0.28,-8.39 -0.74,-12.61 -3.91,16.79 -14.43,29.92 -23.51,43.8 -7.15,10.93 -14.4,21.79 -19.47,33.9 -3.78,9.03 -6.23,18.4 -6.71,28.2 -0.59,11.95 2.26,23.17 8.54,33.28 3.76,6.07 8.44,11.56 12.72,17.31 0.36,0.49 0.75,0.96 1.13,1.44 l -0.39,0.49 c -2.78,-2 -5.65,-3.89 -8.33,-6.02 -12.9,-10.23 -23.86,-22.09 -30.76,-37.27 -5.35,-11.77 -6.76,-24.15 -5.31,-36.9 2.41,-21.24 11.63,-39.66 23.7,-56.9 7.63,-10.9 15.43,-21.7 22.75,-32.81 7.31,-11.11 11.78,-23.44 13.48,-36.65 1.58,-12.32 0.38,-24.49 -2.45,-36.55 -2.43,-10.38 -6,-20.36 -10.24,-30.13 l 0.47,-0.43 c 3.18,3.14 6.6,6.08 9.51,9.45 16.8,19.42 27.96,41.68 33.29,66.83 3.12,14.73 3.44,29.56 1.84,44.51 -1.06,9.89 -2.25,19.82 -2.49,29.75 -0.27,11.05 3.86,21.06 9.7,30.3 5.19,8.22 10.8,16.18 15.83,24.48 7.27,12.01 11.77,25.09 13,39.09 1.06,12.19 -1.32,23.97 -5.7,35.33 -4.68,12.14 -11.42,23.07 -19.75,33.04 -0.28,0.34 -0.5,0.73 -0.98,1.42 0.58,-0.2 0.81,-0.21 0.94,-0.33 13.86,-12.66 25.56,-26.91 32.56,-44.59 4.2,-10.61 4.64,-21.64 2.92,-32.71 -1.55,-9.97 -3.84,-19.83 -5.69,-29.75 -1.3,-6.98 -1.62,-14.03 -0.96,-21.16 2.41,11.44 9.46,20.38 15.71,29.77 4.45,6.69 8.7,13.49 10.95,21.34 l 0.78,-0.11 c -0.52,-5.46 -0.86,-10.95 -1.6,-16.38 -1.57,-11.65 -6.36,-22.27 -10.97,-32.92 -5.36,-12.4 -10.87,-24.73 -14.2,-37.9 -4.6,-18.21 -6.04,-36.6 -3.4,-55.24 0.17,-1.22 0.27,-2.44 0.62,-3.65 3.31,18.57 10.98,35.38 19.91,51.69 5.97,10.9 12.18,21.66 18.06,32.61 7.08,13.2 12.26,27.14 14.41,42.02 4.35,30.04 -2.87,56.63 -24.51,78.55 -9.21,9.33 -20.5,15.79 -31.95,21.98 -9.44,5.1 -18.91,10.16 -28.11,15.67 -11.91,7.14 -21.38,16.78 -27.83,29.82 z"
           id="path4" />
      </g>
    </g>
  </g>
</svg>
