<svg xmlns="http://www.w3.org/2000/svg" viewBox="-10 -10 150 150">
  <defs>
    <!-- Face A: Purge coin (red outer ring, flame symbol) -->
    <symbol id="faceA" viewBox="0 0 130 130">
      <defs>
        <clipPath id="fa-clip" clipPathUnits="userSpaceOnUse">
          <circle cx="65" cy="65" r="33"/>
        </clipPath>
      </defs>
      <circle cx="65" cy="65" r="58" fill="#ed0e11"/>
      <circle cx="65" cy="65" r="46" fill="#111"/>
      <circle cx="65" cy="65" r="33" fill="#fff"/>
      <!-- Flame symbol (Purge logo) -->
      <g clip-path="url(#fa-clip)">
        <g transform="translate(65 65) scale(0.096679) translate(-256 -212)">
          <path fill="#ed0e11" d="M437 0h74L357 152.48c-55.77 55.19-146.19 55.19-202 0L.94 0H75l117 115.83a91.1 91.1 0 0 0 127.91 0Z"/>
          <path fill="#ed0e11" d="M74.05 424H0l155-153.42c55.77-55.19 146.19-55.19 202 0L512 424h-74L320 307.23a91.1 91.1 0 0 0-127.91 0Z"/>
        </g>
      </g>
    </symbol>
  </defs>
  <g transform="translate(57 65)">
    <g transform="scale(0.81 0.81)">
      <g transform="translate(-65 -65)">
        <use href="#faceA"/>
      </g>
    </g>
  </g>
</svg>
