<svg xmlns="http://www.w3.org/2000/svg" viewBox="0 0 64 64" role="img" aria-labelledby="title">
  <title id="title">Unfinished quest pointing down and left</title>
  <defs>
    <linearGradient id="quest-gold" x1="0" y1="0" x2="0" y2="1">
      <stop offset="0" stop-color="#fff1a8"/>
      <stop offset="0.48" stop-color="#f8bd3d"/>
      <stop offset="1" stop-color="#c96b12"/>
    </linearGradient>
    <radialGradient id="quest-core" cx="38%" cy="28%" r="72%">
      <stop offset="0" stop-color="#372044"/>
      <stop offset="1" stop-color="#110b18"/>
    </radialGradient>
  </defs>

  <!-- This waypoint sits above/right of its action, so its tail leaves the
       lower-left edge and aims back at that action instead of pointing down. -->
  <path fill="#05070b" d="M32 1C13.6 1 2 12.4 2 27.8c0 10.6 5.5 19.1 14.8 23.5L6.2 58.7c-2 2.1.1 5.5 3 4.5l17-7.4c1.9.3 3.8.5 5.8.5 18.4 0 30-11.4 30-28.5C62 12.4 50.4 1 32 1Z"/>
  <path fill="url(#quest-gold)" stroke="#2b1705" stroke-width="2.4" d="M32 5C16.1 5 6 14.3 6 27.7c0 8.9 4.5 15.8 12.5 19.5l-7.7 9.6c-1.5 1.4.1 3.9 2.1 3.1l15.5-7c1.2.1 2.4.2 3.6.2 15.9 0 26-9.3 26-25.4S47.9 5 32 5Z"/>
  <circle cx="32" cy="27.5" r="18.2" fill="url(#quest-core)" stroke="#fff0a3" stroke-width="2.2"/>
  <path fill="none" stroke="#ffffff" stroke-linecap="round" stroke-width="5.4" d="M32 17.8v12"/>
  <circle cx="32" cy="39.2" r="3.1" fill="#ffffff"/>
  <path fill="none" stroke="#fff8d5" stroke-linecap="round" stroke-width="2" opacity=".62" d="M16.5 17.2c3.5-4.1 8.7-6.3 14-6.5"/>
</svg>
