<svg xmlns="http://www.w3.org/2000/svg" viewBox="-18 -18 36 36">
  <g transform="matrix(0.055107 0 0 0.055107 -14.108 -14.108)">
      <g fill="#ab8d3f" stroke="#ab8d3f" style="vector-effect:non-scaling-stroke"><g transform="translate(0 0) scale(32)"><g id="ico"><path d="m4.5 1.35 3.5 2 3.5-2 4 2.28-1 1.74-3-1.72-3.5 2-3.5-2-3 1.72-1-1.74z"/><path d="m4.5 10.35 3.5 2 3.5-2 4 2.28-1 1.74-3-1.72-3.5 2-3.5-2-3 1.72-1-1.74z"/><path d="m4.5 5.85-4 2.28 1 1.74 3-1.72 3.5 2 3.5-2 3 1.72 1-1.74-4-2.28-3.5 2z"/></g></g></g>
    </g>
  
</svg>
